<?xml version="1.0" encoding="utf-8"?>
<!-- Generator: Adobe Illustrator 24.1.3, SVG Export Plug-In . SVG Version: 6.00 Build 0)  -->
<svg version="1.1" id="Слой_1" xmlns="http://www.w3.org/2000/svg" xmlns:xlink="http://www.w3.org/1999/xlink" x="0px" y="0px"
	 viewBox="0 0 9553.03 3167.43" style="enable-background:new 0 0 9553.03 3167.43;" xml:space="preserve">
<style type="text/css">
	.st0{fill:#FFFFFF;}
	.st1{fill:#FFFF00;}
</style>
<g>
	<g>
		<g>
			<path d="M178,1870.55l334.71-20.97c7.24,54.36,22,95.79,44.27,124.25c36.23,46.09,88.01,69.12,155.32,69.12
				c50.21,0,88.92-11.77,116.1-35.34c27.18-23.55,40.77-50.87,40.77-81.93c0-29.51-12.95-55.92-38.83-79.21
				c-25.89-23.3-85.95-45.3-180.17-66.01c-154.29-34.68-264.31-80.77-330.05-138.23c-66.28-57.47-99.4-130.72-99.4-219.78
				c0-58.5,16.95-113.77,50.87-165.8c33.9-52.03,84.9-92.92,152.99-122.7c68.07-29.77,161.4-44.65,279.96-44.65
				c145.48,0,256.4,27.06,332.77,81.15c76.36,54.11,121.79,140.18,136.29,258.22l-331.61,19.41
				c-8.81-51.25-27.31-88.53-55.53-111.83c-28.22-23.3-67.18-34.95-116.88-34.95c-40.9,0-71.71,8.68-92.42,26.02
				c-20.71,17.35-31.06,38.44-31.06,63.29c0,18.13,8.54,34.44,25.63,48.93c16.56,15.02,55.91,29,118.04,41.94
				c153.77,33.14,263.91,66.67,330.44,100.57c66.52,33.91,114.94,75.98,145.22,126.2c30.29,50.22,45.43,106.39,45.43,168.52
				c0,73-20.19,140.31-60.57,201.92c-40.38,61.62-96.82,108.33-169.3,140.18c-72.49,31.84-163.86,47.76-274.14,47.76
				c-193.64,0-327.72-37.28-402.28-111.83C230.03,2080.23,187.83,1985.49,178,1870.55z"/>
			<path d="M1369.3,1422.46h295.11v120.37c42.52-50.21,85.41-85.94,128.71-107.17c43.3-21.22,95.53-31.84,156.71-31.84
				c65.84,0,117.96,11.65,156.33,34.95c38.37,23.3,69.74,57.99,94.1,104.06c49.63-53.84,94.88-90.47,135.72-109.89
				c40.84-19.41,91.25-29.12,151.23-29.12c88.41,0,157.43,26.28,207.06,78.82c49.63,52.55,74.46,134.74,74.46,246.57v517.99h-316.85
				v-469.84c0-37.28-7.23-64.97-21.67-83.1c-21.16-28.47-47.47-42.71-78.93-42.71c-37.16,0-67.08,13.47-89.78,40.38
				c-22.7,26.93-34.05,70.16-34.05,129.69v425.58h-316.85v-454.31c0-36.23-2.09-60.83-6.24-73.78c-6.76-20.7-18.44-37.4-35.07-50.09
				c-16.62-12.68-36.11-19.03-58.44-19.03c-36.38,0-66.25,13.73-89.62,41.16c-23.38,27.45-35.07,72.49-35.07,135.13v420.92H1369.3
				V1422.46z"/>
			<path d="M3245.56,1689.6l-302.1-31.84c11.38-52.81,27.82-94.36,49.31-124.64c21.48-30.29,52.42-56.56,92.8-78.82
				c28.99-16.04,68.85-28.47,119.6-37.28c50.73-8.8,105.62-13.2,164.64-13.2c94.74,0,170.85,5.32,228.32,15.92
				c57.47,10.62,105.35,32.75,143.67,66.4c26.91,23.3,48.15,56.3,63.68,99.02c15.53,42.71,23.3,83.48,23.3,122.31v364.22
				c0,38.83,2.45,69.25,7.38,91.25c4.91,22.01,15.65,50.09,32.23,84.26h-296.66c-11.92-21.22-19.68-37.4-23.3-48.54
				c-3.63-11.13-7.26-28.6-10.87-52.42c-41.43,39.87-82.59,68.34-123.48,85.43c-55.92,22.78-120.89,34.17-194.93,34.17
				c-98.37,0-173.06-22.78-224.05-68.34c-51-45.55-76.5-101.73-76.5-168.52c0-62.64,18.37-114.16,55.14-154.54
				c36.75-40.38,104.57-70.4,203.47-90.09c118.55-23.81,195.43-40.5,230.65-50.09c35.2-9.57,72.48-22.13,111.83-37.66
				c0-38.83-8.03-66.01-24.07-81.54c-16.05-15.53-44.27-23.3-84.65-23.3c-51.78,0-90.61,8.29-116.49,24.85
				C3274.29,1629.55,3257.98,1653.88,3245.56,1689.6z M3519.7,1855.79c-43.49,15.53-88.8,29.26-135.9,41.16
				c-64.2,17.09-104.84,33.92-121.93,50.48c-17.61,17.09-26.4,36.5-26.4,58.25c0,24.85,8.66,45.17,26.02,60.96
				c17.34,15.8,42.83,23.69,76.49,23.69c35.2,0,67.95-8.54,98.24-25.63c30.29-17.08,51.76-37.92,64.46-62.52
				c12.68-24.58,19.03-56.56,19.03-95.91V1855.79z"/>
			<path d="M4021.38,1422.46h295.88v135.13c28.47-58.5,57.86-98.75,88.14-120.76c30.29-22,67.69-33.01,112.22-33.01
				c46.6,0,97.58,14.5,152.99,43.49l-97.85,225.21c-37.28-15.53-66.79-23.3-88.53-23.3c-41.43,0-73.52,17.08-96.3,51.25
				c-32.62,48.15-48.93,138.23-48.93,270.26v276.47h-317.63V1422.46z"/>
			<path d="M5184.72,1108.71v313.75h173.96v231.42h-173.96v292.19c0,35.14,3.36,58.39,10.1,69.75
				c10.35,17.57,28.47,26.36,54.36,26.36c23.3,0,55.92-6.71,97.85-20.16l23.3,218.19c-78.18,17.09-151.18,25.63-219,25.63
				c-78.7,0-136.68-10.08-173.96-30.25c-37.28-20.17-64.85-50.8-82.71-91.91c-17.86-41.11-26.79-107.68-26.79-199.72v-290.08
				h-116.49v-231.42h116.49v-151.44L5184.72,1108.71z"/>
		</g>
	</g>
	<g>
		<path d="M669.06,2686.85v98.3h-29.75v-70.71H375.87v-301.81h31.47v274.22h182.38v-274.22h31.48v274.22H669.06z"/>
		<path d="M916.97,2610.54H727.26c1.72,23.57,10.78,42.62,27.16,57.13c16.38,14.52,37.08,21.77,62.09,21.77
			c14.08,0,27.02-2.51,38.8-7.55c11.78-5.03,21.99-12.43,30.61-22.2l17.25,19.83c-10.07,12.07-22.64,21.27-37.73,27.59
			c-15.09,6.33-31.69,9.49-49.8,9.49c-23.28,0-43.91-4.96-61.87-14.88c-17.97-9.92-31.98-23.64-42.04-41.18
			c-10.06-17.53-15.09-37.36-15.09-59.5c0-22.13,4.81-41.97,14.44-59.5c9.63-17.53,22.85-31.18,39.67-40.96
			c16.82-9.77,35.71-14.66,56.7-14.66c20.98,0,39.81,4.89,56.48,14.66c16.67,9.77,29.75,23.36,39.24,40.74
			c9.49,17.4,14.23,37.3,14.23,59.72L916.97,2610.54z M752.49,2533.14c-14.81,13.94-23.22,32.12-25.22,54.54h160.82
			c-2.01-22.42-10.42-40.6-25.22-54.54c-14.81-13.94-33.27-20.91-55.4-20.91C785.61,2512.23,767.29,2519.2,752.49,2533.14z"/>
		<path d="M985.09,2487.66h30.61v100.46h142.71v-100.46h30.61v226.79h-30.61v-100.03h-142.71v100.03h-30.61V2487.66z"/>
		<path d="M1435.65,2514.82h-85.8v199.63h-30.61v-199.63h-85.8v-27.16h202.21V2514.82z"/>
		<path d="M1654.68,2500.38c17.25,9.63,30.75,23.22,40.53,40.74c9.77,17.54,14.66,37.51,14.66,59.93c0,22.71-4.89,42.83-14.66,60.36
			c-9.78,17.54-23.21,31.12-40.31,40.75c-17.11,9.63-36.43,14.44-57.99,14.44c-18.4,0-35-3.81-49.8-11.43
			c-14.81-7.61-26.95-18.76-36.43-33.41v126.33h-30.61v-310.44h29.32v44.84c9.2-14.94,21.34-26.44,36.43-34.49
			c15.09-8.04,32.12-12.07,51.09-12.07C1618.17,2485.93,1637.43,2490.75,1654.68,2500.38z M1637.86,2678.44
			c12.93-7.33,23.07-17.74,30.4-31.26c7.33-13.51,10.99-28.89,10.99-46.13c0-17.25-3.66-32.55-10.99-45.92
			c-7.33-13.37-17.46-23.78-30.4-31.26c-12.94-7.47-27.31-11.21-43.12-11.21c-16.1,0-30.55,3.74-43.33,11.21
			c-12.79,7.48-22.85,17.89-30.18,31.26c-7.33,13.37-10.99,28.67-10.99,45.92c0,17.25,3.67,32.63,10.99,46.13
			c7.33,13.51,17.39,23.93,30.18,31.26c12.79,7.33,27.23,10.99,43.33,10.99C1610.55,2689.44,1624.93,2685.77,1637.86,2678.44z"/>
		<path d="M2081.52,2487.66l-113.39,253.95c-9.2,21.27-19.83,36.36-31.91,45.27c-12.07,8.91-26.59,13.37-43.55,13.37
			c-10.93,0-21.13-1.72-30.61-5.17c-9.49-3.45-17.68-8.62-24.58-15.52l14.23-22.85c11.49,11.49,25.29,17.24,41.39,17.24
			c10.35,0,19.19-2.88,26.52-8.62c7.33-5.75,14.15-15.52,20.48-29.32l9.92-21.99l-101.32-226.36h31.91l85.37,192.73l85.37-192.73
			H2081.52z"/>
		<path d="M2382.9,2487.66v226.79h-28.02v-179.36l-91.84,151.77h-13.8l-91.84-152.2v179.79h-28.03v-226.79h31.04l96.15,163.41
			l97.87-163.41H2382.9z"/>
		<path d="M2469.99,2487.66h30.61v100.46h142.71v-100.46h30.61v226.79h-30.61v-100.03H2500.6v100.03h-30.61V2487.66z"/>
		<path d="M2795.51,2701.73c-17.54-9.92-31.33-23.64-41.39-41.18c-10.06-17.53-15.09-37.36-15.09-59.5
			c0-22.13,5.03-41.97,15.09-59.5c10.06-17.53,23.86-31.18,41.39-40.96c17.53-9.77,37.22-14.66,59.07-14.66
			c21.84,0,41.53,4.89,59.07,14.66c17.53,9.77,31.26,23.43,41.18,40.96c9.92,17.54,14.88,37.37,14.88,59.5
			c0,22.14-4.96,41.97-14.88,59.5c-9.92,17.54-23.65,31.26-41.18,41.18c-17.54,9.92-37.23,14.88-59.07,14.88
			C2832.73,2716.6,2813.04,2711.64,2795.51,2701.73z M2897.91,2678.44c12.79-7.33,22.78-17.74,29.97-31.26
			c7.18-13.51,10.78-28.89,10.78-46.13c0-17.25-3.6-32.62-10.78-46.13c-7.19-13.51-17.18-23.93-29.97-31.26
			c-12.79-7.33-27.24-10.99-43.33-10.99c-16.1,0-30.54,3.67-43.33,10.99c-12.79,7.33-22.85,17.75-30.18,31.26
			c-7.33,13.51-10.99,28.89-10.99,46.13c0,17.25,3.66,32.63,10.99,46.13c7.33,13.51,17.39,23.93,30.18,31.26
			c12.79,7.33,27.23,10.99,43.33,10.99C2870.67,2689.44,2885.12,2685.77,2897.91,2678.44z"/>
		<path d="M3035.23,2487.66h30.61v180.22l151.34-180.22h27.16v226.79h-30.61v-180.22l-150.91,180.22h-27.59V2487.66z
			 M3091.71,2440.23c-11.5-9.77-17.39-23.57-17.68-41.39h21.99c0.28,11.21,4.31,20.2,12.07,26.95c7.76,6.76,17.82,10.13,30.18,10.13
			c12.35,0,22.49-3.38,30.4-10.13c7.9-6.75,12-15.74,12.29-26.95h21.99c-0.29,17.83-6.25,31.62-17.89,41.39
			c-11.64,9.78-27.24,14.66-46.78,14.66C3118.72,2454.89,3103.2,2450,3091.71,2440.23z"/>
		<path d="M3604.35,2514.82h-85.8v199.63h-30.61v-199.63h-85.8v-27.16h202.21V2514.82z"/>
		<path d="M3836.75,2610.54h-189.71c1.72,23.57,10.78,42.62,27.16,57.13c16.38,14.52,37.08,21.77,62.09,21.77
			c14.08,0,27.02-2.51,38.8-7.55c11.78-5.03,21.99-12.43,30.61-22.2l17.25,19.83c-10.07,12.07-22.64,21.27-37.73,27.59
			c-15.09,6.33-31.69,9.49-49.8,9.49c-23.28,0-43.91-4.96-61.87-14.88c-17.97-9.92-31.98-23.64-42.04-41.18
			c-10.06-17.53-15.09-37.36-15.09-59.5c0-22.13,4.81-41.97,14.44-59.5c9.63-17.53,22.85-31.18,39.67-40.96
			c16.81-9.77,35.71-14.66,56.7-14.66c20.98,0,39.81,4.89,56.48,14.66c16.67,9.77,29.75,23.36,39.24,40.74
			c9.49,17.4,14.23,37.3,14.23,59.72L3836.75,2610.54z M3672.26,2533.14c-14.81,13.94-23.22,32.12-25.22,54.54h160.82
			c-2.02-22.42-10.42-40.6-25.22-54.54c-14.81-13.94-33.27-20.91-55.4-20.91C3705.39,2512.23,3687.06,2519.2,3672.26,2533.14z"/>
		<path d="M4040.25,2714.45l-72-94.85l-72.43,94.85h-34.49l89.68-116.41l-85.37-110.38h34.49l68.12,88.82l68.12-88.82H4070
			l-85.37,110.38l90.54,116.41H4040.25z"/>
		<path d="M4125.19,2487.66h30.61v100.46h142.71v-100.46h30.61v226.79h-30.61v-100.03H4155.8v100.03h-30.61V2487.66z"/>
		<path d="M4416.21,2487.66h30.61v180.22l151.34-180.22h27.16v226.79h-30.61v-180.22l-150.91,180.22h-27.59V2487.66z"/>
		<path d="M4795.2,2613.55h-51.74v100.89h-30.61v-226.79h30.61v99.6h52.17l79.76-99.6h33.2l-89.25,109.95l95.72,116.84h-36.22
			L4795.2,2613.55z"/>
		<path d="M4963.35,2487.66h30.61v180.22l151.34-180.22h27.16v226.79h-30.61v-180.22l-150.91,180.22h-27.59V2487.66z"/>
	</g>
	<path class="st1" d="M9139.58,367.8H5753.92c-129.5,0-235.45,105.96-235.45,235.45v1961.54c0,129.5,105.96,235.45,235.45,235.45
		h3385.65c129.5,0,235.45-105.96,235.45-235.45V603.25C9375.03,473.76,9269.07,367.8,9139.58,367.8z M6690.07,2245.33h-256.99
		v-514.5c0-102.11-4.94-166.92-14.77-194.43c-9.82-27.53-27.19-49.37-52.04-65.59c-24.9-16.19-56.06-24.29-93.53-24.29
		c-43.03,0-81.42,10.41-115.21,31.18c-33.79,20.79-58.52,52.12-74.17,94.01c-15.68,41.91-23.51,103.8-23.51,185.72v487.9h-256.99
		V901.43h256.99v495.72c83.27-98.03,182.79-147.06,298.56-147.06c59.42,0,113,11,160.78,33c47.78,21.98,83.73,50.11,107.94,84.32
		c24.19,34.23,40.71,72.11,49.61,113.63c8.87,41.54,13.32,105.99,13.32,193.37V2245.33z M7829.51,2245.33h-238.99V2099.7
		c-35.41,51.92-81.91,92.71-139.53,122.39c-57.65,29.66-118.46,44.52-182.48,44.52c-65.28,0-123.82-14.37-175.67-43.07
		c-51.84-28.7-89.33-69.03-112.5-120.95c-23.18-51.92-34.75-123.72-34.75-215.38v-615.84h256.99v447.02
		c0,136.81,4.73,220.64,14.19,251.48c9.46,30.84,26.7,55.29,51.74,73.3c25.01,18.01,56.75,27.01,95.22,27.01
		c43.93,0,83.33-12.05,118.12-36.19c34.78-24.11,58.58-54.03,71.43-89.77c12.8-35.72,19.23-123.21,19.23-262.45v-410.41h256.99
		V2245.33z M8917.48,2132.01c-79.03,89.74-175,134.6-287.9,134.6c-55.56,0-110.33-13.78-164.35-41.3
		c-54.02-27.55-100.56-68.5-139.61-122.88v142.9h-238.99V901.43h256.99v484.21c79.37-90.36,173.4-135.55,282.09-135.55
		c118.45,0,216.46,42.89,294,128.68c77.56,85.79,116.32,208.94,116.32,369.5C9036.04,1914.35,8996.51,2042.26,8917.48,2132.01z
		 M8556.43,1446.52c-61.91,0-113.4,24.01-154.47,71.99c-41.07,47.99-61.6,120.89-61.6,218.69c0,100.87,15.94,175.46,47.81,223.75
		c44.75,68.46,104.19,102.68,178.37,102.68c57,0,105.58-24.29,145.73-72.89s60.22-125.14,60.22-229.71
		c0-111.26-20.23-191.49-60.68-240.71C8671.35,1471.13,8619.56,1446.52,8556.43,1446.52z"/>
</g>
</svg>
